####
#
# OBJ File Generated by Meshlab
#
####
# Object rotatingDomain.obj
#
# Vertices: 108
# Faces: 212
#
####
mtllib ./rotatingDomain.obj.mtl

vn -3.023054 -3.130570 -0.185764
v -0.040000 -0.114626 -0.006802 1.000000 1.000000 1.000000
vn -3.023054 -3.130570 0.185764
v -0.040000 -0.114626 0.006802 1.000000 1.000000 1.000000
vn -3.022996 -3.086611 -0.554773
v -0.040000 -0.113017 -0.020312 1.000000 1.000000 1.000000
vn -3.022996 -3.086611 0.554773
v -0.040000 -0.113017 0.020312 1.000000 1.000000 1.000000
vn -3.023105 -2.999350 -0.915919
v -0.040000 -0.109821 -0.033536 1.000000 1.000000 1.000000
vn -3.023105 -2.999349 0.915918
v -0.040000 -0.109821 0.033536 1.000000 1.000000 1.000000
vn -3.022949 -2.869936 -1.264269
v -0.040000 -0.105084 -0.046290 1.000000 1.000000 1.000000
vn -3.022949 -2.869937 1.264269
v -0.040000 -0.105084 0.046290 1.000000 1.000000 1.000000
vn -3.023126 -2.700271 -1.594852
v -0.040000 -0.098871 -0.058393 1.000000 1.000000 1.000000
vn -3.023126 -2.700271 1.594852
v -0.040000 -0.098871 0.058393 1.000000 1.000000 1.000000
vn -3.023004 -2.492724 -1.902964
v -0.040000 -0.091271 -0.069677 1.000000 1.000000 1.000000
vn -3.023004 -2.492724 1.902963
v -0.040000 -0.091271 0.069677 1.000000 1.000000 1.000000
vn -3.023062 -2.250143 -2.184453
v -0.040000 -0.082389 -0.079983 1.000000 1.000000 1.000000
vn -3.023062 -2.250143 2.184453
v -0.040000 -0.082389 0.079983 1.000000 1.000000 1.000000
vn -3.023067 -1.976043 -2.435207
v -0.040000 -0.072351 -0.089166 1.000000 1.000000 1.000000
vn -3.023067 -1.976043 2.435208
v -0.040000 -0.072351 0.089166 1.000000 1.000000 1.000000
vn -3.023002 -1.674131 -2.651835
v -0.040000 -0.061297 -0.097098 1.000000 1.000000 1.000000
vn -3.023002 -1.674131 2.651835
v -0.040000 -0.061297 0.097098 1.000000 1.000000 1.000000
vn -3.023061 -1.348712 -2.831246
v -0.040000 -0.049383 -0.103666 1.000000 1.000000 1.000000
vn -3.023061 -1.348712 2.831246
v -0.040000 -0.049383 0.103666 1.000000 1.000000 1.000000
vn -3.023025 -1.004387 -2.970886
v -0.040000 -0.036776 -0.108779 1.000000 1.000000 1.000000
vn -3.023025 -1.004387 2.970886
v -0.040000 -0.036776 0.108779 1.000000 1.000000 1.000000
vn -3.023070 -0.645978 -3.068827
v -0.040000 -0.023652 -0.112365 1.000000 1.000000 1.000000
vn -3.023070 -0.645978 3.068827
v -0.040000 -0.023652 0.112365 1.000000 1.000000 1.000000
vn -3.023012 -0.278480 -3.123683
v -0.040000 -0.010196 -0.114374 1.000000 1.000000 1.000000
vn -3.023012 -0.278480 3.123684
v -0.040000 -0.010196 0.114374 1.000000 1.000000 1.000000
vn -6.283193 0.000000 0.000000
v -0.040000 0.000000 0.000000 1.000000 1.000000 1.000000
vn -3.023057 0.092945 -3.134699
v -0.040000 0.003403 -0.114777 1.000000 1.000000 1.000000
vn -3.023057 0.092945 3.134699
v -0.040000 0.003403 0.114777 1.000000 1.000000 1.000000
vn -3.022987 0.463104 -3.101688
v -0.040000 0.016954 -0.113569 1.000000 1.000000 1.000000
vn -3.022987 0.463104 3.101688
v -0.040000 0.016954 0.113569 1.000000 1.000000 1.000000
vn -3.023103 0.826693 -3.025158
v -0.040000 0.030267 -0.110766 1.000000 1.000000 1.000000
vn -3.023103 0.826693 3.025158
v -0.040000 0.030267 0.110766 1.000000 1.000000 1.000000
vn -3.023048 1.178586 -2.906184
v -0.040000 0.043155 -0.106409 1.000000 1.000000 1.000000
vn -3.023048 1.178586 2.906184
v -0.040000 0.043155 0.106409 1.000000 1.000000 1.000000
vn -3.023054 1.514012 -2.746405
v -0.040000 0.055438 -0.100558 1.000000 1.000000 1.000000
vn -3.023054 1.514012 2.746406
v -0.040000 0.055438 0.100558 1.000000 1.000000 1.000000
vn -3.022948 1.828310 -2.547979
v -0.040000 0.066942 -0.093296 1.000000 1.000000 1.000000
vn -3.022948 1.828310 2.547979
v -0.040000 0.066942 0.093296 1.000000 1.000000 1.000000
vn -3.023165 2.116814 -2.313901
v -0.040000 0.077506 -0.084723 1.000000 1.000000 1.000000
vn -3.023165 2.116814 2.313901
v -0.040000 0.077506 0.084723 1.000000 1.000000 1.000000
vn -3.022954 2.375578 -2.047326
v -0.040000 0.086983 -0.074962 1.000000 1.000000 1.000000
vn -3.022954 2.375578 2.047326
v -0.040000 0.086983 0.074962 1.000000 1.000000 1.000000
vn -3.023118 2.601071 -1.751982
v -0.040000 0.095238 -0.064148 1.000000 1.000000 1.000000
vn -3.023118 2.601071 1.751982
v -0.040000 0.095238 0.064148 1.000000 1.000000 1.000000
vn -3.022950 2.790024 -1.432019
v -0.040000 0.102157 -0.052434 1.000000 1.000000 1.000000
vn -3.022950 2.790025 1.432019
v -0.040000 0.102157 0.052434 1.000000 1.000000 1.000000
vn -3.023125 2.939831 -1.091975
v -0.040000 0.107641 -0.039983 1.000000 1.000000 1.000000
vn -3.023125 2.939831 1.091975
v -0.040000 0.107641 0.039983 1.000000 1.000000 1.000000
vn -3.022968 3.048330 -0.736619
v -0.040000 0.111615 -0.026971 1.000000 1.000000 1.000000
vn -3.022968 3.048331 0.736619
v -0.040000 0.111615 0.026971 1.000000 1.000000 1.000000
vn -3.023081 3.114074 -0.370861
v -0.040000 0.114021 -0.013581 1.000000 1.000000 1.000000
vn -3.023081 3.114074 0.370861
v -0.040000 0.114021 0.013581 1.000000 1.000000 1.000000
vn -3.023037 3.136075 -0.000000
v -0.040000 0.114827 0.000000 1.000000 1.000000 1.000000
vn 3.023054 -3.130570 -0.185764
v 0.040000 -0.114626 -0.006802 1.000000 1.000000 1.000000
vn 3.023054 -3.130570 0.185764
v 0.040000 -0.114626 0.006802 1.000000 1.000000 1.000000
vn 3.022996 -3.086611 -0.554773
v 0.040000 -0.113017 -0.020312 1.000000 1.000000 1.000000
vn 3.022996 -3.086611 0.554773
v 0.040000 -0.113017 0.020312 1.000000 1.000000 1.000000
vn 3.023105 -2.999349 -0.915918
v 0.040000 -0.109821 -0.033536 1.000000 1.000000 1.000000
vn 3.023105 -2.999350 0.915919
v 0.040000 -0.109821 0.033536 1.000000 1.000000 1.000000
vn 3.022949 -2.869937 -1.264269
v 0.040000 -0.105084 -0.046290 1.000000 1.000000 1.000000
vn 3.022949 -2.869936 1.264269
v 0.040000 -0.105084 0.046290 1.000000 1.000000 1.000000
vn 3.023126 -2.700271 -1.594852
v 0.040000 -0.098871 -0.058393 1.000000 1.000000 1.000000
vn 3.023126 -2.700271 1.594852
v 0.040000 -0.098871 0.058393 1.000000 1.000000 1.000000
vn 3.023004 -2.492724 -1.902963
v 0.040000 -0.091271 -0.069677 1.000000 1.000000 1.000000
vn 3.023004 -2.492724 1.902964
v 0.040000 -0.091271 0.069677 1.000000 1.000000 1.000000
vn 3.023062 -2.250143 -2.184453
v 0.040000 -0.082389 -0.079983 1.000000 1.000000 1.000000
vn 3.023062 -2.250143 2.184453
v 0.040000 -0.082389 0.079983 1.000000 1.000000 1.000000
vn 3.023067 -1.976043 -2.435208
v 0.040000 -0.072351 -0.089166 1.000000 1.000000 1.000000
vn 3.023067 -1.976043 2.435207
v 0.040000 -0.072351 0.089166 1.000000 1.000000 1.000000
vn 3.023002 -1.674131 -2.651835
v 0.040000 -0.061297 -0.097098 1.000000 1.000000 1.000000
vn 3.023002 -1.674131 2.651835
v 0.040000 -0.061297 0.097098 1.000000 1.000000 1.000000
vn 3.023061 -1.348712 -2.831246
v 0.040000 -0.049383 -0.103666 1.000000 1.000000 1.000000
vn 3.023061 -1.348712 2.831246
v 0.040000 -0.049383 0.103666 1.000000 1.000000 1.000000
vn 3.023025 -1.004387 -2.970886
v 0.040000 -0.036776 -0.108779 1.000000 1.000000 1.000000
vn 3.023025 -1.004387 2.970886
v 0.040000 -0.036776 0.108779 1.000000 1.000000 1.000000
vn 3.023070 -0.645978 -3.068827
v 0.040000 -0.023652 -0.112365 1.000000 1.000000 1.000000
vn 3.023070 -0.645978 3.068826
v 0.040000 -0.023652 0.112365 1.000000 1.000000 1.000000
vn 3.023012 -0.278480 -3.123684
v 0.040000 -0.010196 -0.114374 1.000000 1.000000 1.000000
vn 3.023012 -0.278480 3.123683
v 0.040000 -0.010196 0.114374 1.000000 1.000000 1.000000
vn 6.283193 0.000000 0.000000
v 0.040000 0.000000 0.000000 1.000000 1.000000 1.000000
vn 3.023057 0.092945 -3.134699
v 0.040000 0.003403 -0.114777 1.000000 1.000000 1.000000
vn 3.023057 0.092945 3.134699
v 0.040000 0.003403 0.114777 1.000000 1.000000 1.000000
vn 3.022987 0.463104 -3.101688
v 0.040000 0.016954 -0.113569 1.000000 1.000000 1.000000
vn 3.022987 0.463104 3.101688
v 0.040000 0.016954 0.113569 1.000000 1.000000 1.000000
vn 3.023103 0.826693 -3.025158
v 0.040000 0.030267 -0.110766 1.000000 1.000000 1.000000
vn 3.023103 0.826693 3.025158
v 0.040000 0.030267 0.110766 1.000000 1.000000 1.000000
vn 3.023048 1.178586 -2.906184
v 0.040000 0.043155 -0.106409 1.000000 1.000000 1.000000
vn 3.023048 1.178586 2.906184
v 0.040000 0.043155 0.106409 1.000000 1.000000 1.000000
vn 3.023054 1.514012 -2.746406
v 0.040000 0.055438 -0.100558 1.000000 1.000000 1.000000
vn 3.023054 1.514012 2.746405
v 0.040000 0.055438 0.100558 1.000000 1.000000 1.000000
vn 3.022948 1.828310 -2.547979
v 0.040000 0.066942 -0.093296 1.000000 1.000000 1.000000
vn 3.022948 1.828310 2.547979
v 0.040000 0.066942 0.093296 1.000000 1.000000 1.000000
vn 3.023165 2.116814 -2.313901
v 0.040000 0.077506 -0.084723 1.000000 1.000000 1.000000
vn 3.023165 2.116814 2.313901
v 0.040000 0.077506 0.084723 1.000000 1.000000 1.000000
vn 3.022954 2.375578 -2.047326
v 0.040000 0.086983 -0.074962 1.000000 1.000000 1.000000
vn 3.022954 2.375578 2.047326
v 0.040000 0.086983 0.074962 1.000000 1.000000 1.000000
vn 3.023118 2.601071 -1.751982
v 0.040000 0.095238 -0.064148 1.000000 1.000000 1.000000
vn 3.023118 2.601071 1.751982
v 0.040000 0.095238 0.064148 1.000000 1.000000 1.000000
vn 3.022950 2.790025 -1.432019
v 0.040000 0.102157 -0.052434 1.000000 1.000000 1.000000
vn 3.022950 2.790024 1.432019
v 0.040000 0.102157 0.052434 1.000000 1.000000 1.000000
vn 3.023125 2.939831 -1.091975
v 0.040000 0.107641 -0.039983 1.000000 1.000000 1.000000
vn 3.023125 2.939831 1.091975
v 0.040000 0.107641 0.039983 1.000000 1.000000 1.000000
vn 3.022968 3.048331 -0.736619
v 0.040000 0.111615 -0.026971 1.000000 1.000000 1.000000
vn 3.022968 3.048330 0.736619
v 0.040000 0.111615 0.026971 1.000000 1.000000 1.000000
vn 3.023081 3.114074 -0.370861
v 0.040000 0.114021 -0.013581 1.000000 1.000000 1.000000
vn 3.023081 3.114074 0.370861
v 0.040000 0.114021 0.013581 1.000000 1.000000 1.000000
vn 3.023037 3.136075 0.000000
v 0.040000 0.114827 0.000000 1.000000 1.000000 1.000000
# 108 vertices, 0 vertices normals


usemtl material_0
f 108//108 53//53 107//107

usemtl material_1
f 107//107 53//53 51//51
f 107//107 51//51 105//105
f 105//105 51//51 49//49
f 105//105 49//49 103//103
f 103//103 49//49 47//47
f 103//103 47//47 101//101
f 101//101 47//47 45//45
f 101//101 45//45 99//99
f 99//99 45//45 43//43
f 99//99 43//43 97//97
f 97//97 43//43 41//41
f 97//97 41//41 95//95
f 95//95 41//41 39//39
f 95//95 39//39 93//93
f 93//93 39//39 37//37
f 93//93 37//37 91//91
f 91//91 37//37 35//35
f 91//91 35//35 89//89
f 89//89 35//35 33//33
f 89//89 33//33 87//87
f 87//87 33//33 31//31
f 87//87 31//31 85//85
f 85//85 31//31 29//29
f 85//85 29//29 83//83
f 83//83 29//29 26//26
f 83//83 26//26 80//80
f 80//80 26//26 24//24
f 80//80 24//24 78//78
f 78//78 24//24 22//22
f 78//78 22//22 76//76
f 76//76 22//22 20//20
f 76//76 20//20 74//74
f 74//74 20//20 18//18
f 74//74 18//18 72//72
f 72//72 18//18 16//16
f 72//72 16//16 70//70
f 70//70 16//16 14//14
f 70//70 14//14 68//68
f 68//68 14//14 12//12
f 68//68 12//12 66//66
f 66//66 12//12 10//10
f 66//66 10//10 64//64
f 64//64 10//10 8//8
f 64//64 8//8 62//62
f 62//62 8//8 6//6
f 62//62 6//6 60//60
f 60//60 6//6 4//4
f 60//60 4//4 58//58
f 58//58 4//4 2//2
f 58//58 2//2 56//56
f 56//56 2//2 1//1
f 56//56 1//1 55//55
f 55//55 1//1 3//3
f 55//55 3//3 57//57
f 57//57 3//3 5//5
f 57//57 5//5 59//59
f 59//59 5//5 7//7
f 59//59 7//7 61//61
f 61//61 7//7 9//9
f 61//61 9//9 63//63
f 63//63 9//9 11//11
f 63//63 11//11 65//65
f 65//65 11//11 13//13
f 65//65 13//13 67//67
f 67//67 13//13 15//15
f 67//67 15//15 69//69
f 69//69 15//15 17//17
f 69//69 17//17 71//71
f 71//71 17//17 19//19
f 71//71 19//19 73//73
f 73//73 19//19 21//21
f 73//73 21//21 75//75
f 75//75 21//21 23//23
f 75//75 23//23 77//77
f 77//77 23//23 25//25
f 77//77 25//25 79//79
f 79//79 25//25 28//28
f 79//79 28//28 82//82
f 82//82 28//28 30//30
f 82//82 30//30 84//84
f 84//84 30//30 32//32
f 84//84 32//32 86//86
f 86//86 32//32 34//34
f 86//86 34//34 88//88
f 88//88 34//34 36//36
f 88//88 36//36 90//90
f 90//90 36//36 38//38
f 90//90 38//38 92//92
f 92//92 38//38 40//40
f 92//92 40//40 94//94
f 94//94 40//40 42//42
f 94//94 42//42 96//96
f 96//96 42//42 44//44
f 96//96 44//44 98//98
f 98//98 44//44 46//46
f 98//98 46//46 100//100
f 100//100 46//46 48//48
f 100//100 48//48 102//102
f 102//102 48//48 50//50
f 102//102 50//50 104//104
f 104//104 50//50 52//52
f 104//104 52//52 106//106
f 106//106 52//52 54//54
f 106//106 54//54 108//108
f 108//108 54//54 53//53
f 54//54 52//52 27//27
f 54//54 27//27 53//53
f 47//47 49//49 27//27
f 27//27 49//49 51//51
f 27//27 51//51 53//53
f 41//41 43//43 27//27
f 27//27 43//43 45//45
f 27//27 45//45 47//47
f 35//35 37//37 27//27
f 27//27 37//37 39//39
f 27//27 39//39 41//41
f 29//29 31//31 27//27
f 27//27 31//31 33//33
f 27//27 33//33 35//35
f 22//22 24//24 27//27
f 27//27 24//24 26//26
f 27//27 26//26 29//29
f 16//16 18//18 27//27
f 27//27 18//18 20//20
f 27//27 20//20 22//22
f 10//10 12//12 27//27
f 27//27 12//12 14//14
f 27//27 14//14 16//16
f 4//4 6//6 27//27
f 27//27 6//6 8//8
f 27//27 8//8 10//10
f 3//3 1//1 27//27
f 27//27 1//1 2//2
f 27//27 2//2 4//4
f 9//9 7//7 27//27
f 27//27 7//7 5//5
f 27//27 5//5 3//3
f 15//15 13//13 27//27
f 27//27 13//13 11//11
f 27//27 11//11 9//9
f 21//21 19//19 27//27
f 27//27 19//19 17//17
f 27//27 17//17 15//15
f 28//28 25//25 27//27
f 27//27 25//25 23//23
f 27//27 23//23 21//21
f 34//34 32//32 27//27
f 27//27 32//32 30//30
f 27//27 30//30 28//28
f 40//40 38//38 27//27
f 27//27 38//38 36//36
f 27//27 36//36 34//34
f 46//46 44//44 27//27
f 27//27 44//44 42//42
f 27//27 42//42 40//40
f 52//52 50//50 27//27
f 27//27 50//50 48//48
f 27//27 48//48 46//46
f 108//108 107//107 81//81
f 108//108 81//81 106//106
f 100//100 102//102 81//81
f 81//81 102//102 104//104
f 81//81 104//104 106//106
f 94//94 96//96 81//81
f 81//81 96//96 98//98
f 81//81 98//98 100//100
f 88//88 90//90 81//81
f 81//81 90//90 92//92
f 81//81 92//92 94//94
f 82//82 84//84 81//81
f 81//81 84//84 86//86
f 81//81 86//86 88//88
f 75//75 77//77 81//81
f 81//81 77//77 79//79
f 81//81 79//79 82//82
f 69//69 71//71 81//81
f 81//81 71//71 73//73
f 81//81 73//73 75//75
f 63//63 65//65 81//81
f 81//81 65//65 67//67
f 81//81 67//67 69//69
f 57//57 59//59 81//81
f 81//81 59//59 61//61
f 81//81 61//61 63//63
f 58//58 56//56 81//81
f 81//81 56//56 55//55
f 81//81 55//55 57//57
f 64//64 62//62 81//81
f 81//81 62//62 60//60
f 81//81 60//60 58//58
f 70//70 68//68 81//81
f 81//81 68//68 66//66
f 81//81 66//66 64//64
f 76//76 74//74 81//81
f 81//81 74//74 72//72
f 81//81 72//72 70//70
f 83//83 80//80 81//81
f 81//81 80//80 78//78
f 81//81 78//78 76//76
f 89//89 87//87 81//81
f 81//81 87//87 85//85
f 81//81 85//85 83//83
f 95//95 93//93 81//81
f 81//81 93//93 91//91
f 81//81 91//91 89//89
f 101//101 99//99 81//81
f 81//81 99//99 97//97
f 81//81 97//97 95//95
f 107//107 105//105 81//81
f 81//81 105//105 103//103
f 81//81 103//103 101//101
# 212 faces, 0 coords texture

# End of File
